<svg xmlns="http://www.w3.org/2000/svg" xmlns:svgjs="http://svgjs.com/svgjs" xmlns:xlink="http://www.w3.org/1999/xlink" width="659" height="659" version="1.1"><svg xmlns="http://www.w3.org/2000/svg" width="659" height="659" fill="none" viewBox="0 0 659 659"><path fill="#fff" d="M94 539.337V119.627H185.261C216.372 119.627 240.916 124.463 258.891 134.136C277.213 143.462 290.176 157.625 297.781 176.625C305.732 195.624 309.707 219.287 309.707 247.613V402.024C309.707 431.732 305.732 456.776 297.781 477.157C290.176 497.538 277.558 513.083 259.928 523.792C242.644 534.155 219.31 539.337 189.927 539.337H94ZM152.593 497.366H185.779C207.212 497.366 222.422 493.22 231.409 484.93C240.397 476.639 245.755 464.549 247.484 448.659C249.558 432.768 250.595 413.596 250.595 391.143V254.867C250.595 233.104 249.212 215.487 246.447 202.015C243.681 188.542 237.632 178.697 228.298 172.479C218.965 166.262 204.273 163.153 184.224 163.153H152.593V497.366Z"/><path fill="#fff" d="M464.406 544C440.208 544 419.986 538.818 403.738 528.455C387.837 518.092 375.738 503.756 367.442 485.448C359.145 467.14 354.306 445.895 352.923 421.714L404.775 407.724C405.812 422.578 408.059 436.914 411.516 450.731C415.319 464.549 421.368 475.948 429.665 484.93C437.961 493.566 449.542 497.884 464.406 497.884C479.616 497.884 491.024 493.739 498.629 485.448C506.579 476.812 510.555 464.549 510.555 448.659C510.555 429.659 506.234 414.46 497.592 403.061C488.949 391.316 478.06 379.571 464.924 367.826L394.405 305.646C380.578 293.556 370.38 280.429 363.812 266.266C357.244 251.758 353.96 233.968 353.96 212.896C353.96 182.152 362.775 158.316 380.405 141.39C398.035 124.463 422.06 116 452.48 116C469.073 116 483.591 118.245 496.036 122.736C508.826 126.881 519.37 133.445 527.666 142.426C536.308 151.408 543.049 162.807 547.889 176.625C553.074 190.097 556.531 205.987 558.259 224.295L508.481 237.768C507.444 223.95 505.37 211.341 502.258 199.942C499.147 188.197 493.616 178.87 485.666 171.961C478.06 164.707 466.999 161.08 452.48 161.08C437.961 161.08 426.554 165.052 418.257 172.998C410.306 180.597 406.331 191.997 406.331 207.196C406.331 219.977 408.405 230.513 412.553 238.804C417.047 247.094 424.134 255.558 433.813 264.194L504.851 326.373C520.752 340.19 534.753 356.772 546.852 376.116C558.951 395.115 565 417.742 565 443.995C565 464.722 560.679 482.684 552.037 497.884C543.395 512.738 531.469 524.137 516.259 532.082C501.394 540.027 484.11 544 464.406 544Z"/></svg><style>@media (prefers-color-scheme:light){:root{filter:contrast(1) brightness(.1)}}@media (prefers-color-scheme:dark){:root{filter:none}}</style></svg>